# xmcd
#
# Track frame offsets: 
#        150
#        14507
#        32429
#        42319
#        56803
#        70745
#        81666
#        95449
#        109217
#        127719
#        141210
#        155132
#        166213
#        179993
#        192036
#        201747
#        214340
#        233579
#        246295
#        260624
#        267167
#
# Disc length: 3729 seconds
#
# Revision: 1
# Processed by: cddbd v1.5.1PL2 Copyright (c) Steve Scherf et al.
# Submitted via: ExactAudioCopy v0.95b3
#
DISCID=3e0e8f15
DTITLE=Various Artist - Stelling Banjo Anthology
DYEAR=2005
DGENRE=Bluegrass
TTITLE0=Ned Luberecki - Emergency Pulloff
TTITLE1=Alan Munde - Cotton Patch Rag
TTITLE2=Keith Arneson - Another Time, Another Place
TTITLE3=Bill Emerson - Ticket To Alvarado
TTITLE4=Alvin Breeden - Roadrunner
TTITLE5=Chris Warner - Shuckin' The Corn
TTITLE6=Ned Luberecki - Nedscape Navigator
TTITLE7=Alan Munde - Powder Creek
TTITLE8=Bill Emerson - Little Juniata
TTITLE9=Keith Arneson - In Late September
TTITLE10=Murphy and Casey Henry - Bury Me Beneath The Willow
TTITLE11=Chris Warner - Boatman Stomp
TTITLE12=Geoff Stelling - Home Sweet Home
TTITLE13=Deoff Stelling - Riding The Stelling
TTITLE14=Alan Munde - Apple Blossom
TTITLE15=Murphy Henry - John Hardy
TTITLE16=Chris Warner - Trousdale Ferry Rag
TTITLE17=Casey Henry - Red Mary Janes
TTITLE18=Bill Emerson - Home Of The Red Fox
TTITLE19=Keith Arneson - Shenandoah Breakdown 
TTITLE20=Alvin Breeden - Banjo Special
EXTD=
EXTT0=
EXTT1=
EXTT2=
EXTT3=
EXTT4=
EXTT5=
EXTT6=
EXTT7=
EXTT8=
EXTT9=
EXTT10=
EXTT11=
EXTT12=
EXTT13=
EXTT14=
EXTT15=
EXTT16=
EXTT17=
EXTT18=
EXTT19=
EXTT20=
PLAYORDER=
